<?xml version="1.0" encoding="UTF-8" standalone="no"?>
<svg width="149px" height="56px" viewBox="0 0 149 56" version="1.1" xmlns="http://www.w3.org/2000/svg" xmlns:xlink="http://www.w3.org/1999/xlink">
    <!-- Generator: Sketch 46.2 (44496) - http://www.bohemiancoding.com/sketch -->
    <title>Group 10</title>
    <desc>Created with Sketch.</desc>
    <defs></defs>
    <g id="Page-5" stroke="none" stroke-width="1" fill="none" fill-rule="evenodd">
        <g id="Group-10">
            <g id="Group-9">
                <ellipse id="Oval" fill="#F9F9F9" cx="28.5214576" cy="27.7065588" rx="28.5214576" ry="27.7065588"></ellipse>
                <polygon id="Triangle" fill="#F9F9F9" opacity="0.800000012" transform="translate(50.302937, 49.251614) rotate(139.000000) translate(-50.302937, -49.251614) " points="50.3029373 44.2149953 58.2903309 54.2882323 42.3155438 54.2882323"></polygon>
                <path d="M30.612844,41.8628409 L35.2237195,41.8628409 L35.2237195,24.9740434 L30.612844,24.9740434 L30.612844,41.8628409 Z M32.9182818,23.1333025 C34.29207,23.1333025 35.4132075,22.1208951 35.4132075,20.7863579 C35.4132075,19.4518208 34.29207,18.4547528 32.9182818,18.4547528 C31.5602842,18.4547528 30.4391467,19.4518208 30.4391467,20.7863579 C30.4391467,22.1208951 31.5602842,23.1333025 32.9182818,23.1333025 Z M38.4292253,41.8628409 L43.0401007,41.8628409 L43.0401007,32.2296303 C43.0401007,29.9900623 44.3665169,28.4561116 46.5772106,28.4561116 C48.756323,28.4561116 49.8300885,29.7292907 49.8300885,31.9688587 L49.8300885,41.8628409 L54.4409639,41.8628409 L54.4409639,31.0331488 C54.4409639,27.0908954 52.2618515,24.7286113 48.4089282,24.7286113 C45.7403052,24.7286113 43.9717502,25.8637348 42.976938,27.9959263 L42.882194,27.9959263 L42.882194,24.9740434 L38.4292253,24.9740434 L38.4292253,41.8628409 Z" id="in" fill="#192B41"></path>
                <path d="M58.44757,30.5015686 C58.44757,32.9712292 60.1371716,34.6125565 63.4058402,35.3335133 L66.611346,36.0391307 C68.1904129,36.4072789 68.7904584,36.8674641 68.7904584,37.741816 C68.7904584,38.8462605 67.6693208,39.5365383 65.8376032,39.5365383 C63.9269322,39.5365383 62.7426321,38.738884 62.5215627,37.3123098 L58.021222,37.3123098 C58.258082,40.5642853 61.1319838,42.7118163 65.7112779,42.7118163 C70.2589906,42.7118163 73.3697524,40.5489458 73.3697524,37.2662913 C73.3697524,34.7506121 71.9801735,33.446754 68.4904356,32.6797786 L65.2217671,31.9895008 C63.6584909,31.6366921 62.9005387,31.0691303 62.9005387,30.2254574 C62.9005387,29.1363524 64.0058856,28.4153956 65.6639059,28.4153956 C67.4324608,28.4153956 68.5851797,29.2590685 68.6799237,30.5936056 L72.9434044,30.5936056 C72.8802417,27.3723091 70.0221306,25.2401176 65.7270685,25.2401176 C61.3214718,25.2401176 58.44757,27.3262906 58.44757,30.5015686 Z M75.8488875,42.4203657 L80.4597629,42.4203657 L80.4597629,25.5315682 L75.8488875,25.5315682 L75.8488875,42.4203657 Z M78.1543252,23.6908274 C79.5281134,23.6908274 80.6492509,22.6784199 80.6492509,21.3438827 C80.6492509,20.0093456 79.5281134,19.0122776 78.1543252,19.0122776 C76.7963277,19.0122776 75.6751901,20.0093456 75.6751901,21.3438827 C75.6751901,22.6784199 76.7963277,23.6908274 78.1543252,23.6908274 Z M90.1394431,42.6197793 C85.8127998,42.6197793 83.0178513,39.2757667 83.0178513,33.9529577 C83.0178513,28.6608277 85.8285904,25.3321546 90.1552338,25.3321546 C92.6659502,25.3321546 94.6082025,26.5439757 95.4766893,28.4153956 L95.5714333,28.4153956 L95.5714333,19.2270307 L100.182309,19.2270307 L100.182309,42.4203657 L95.634596,42.4203657 L95.634596,39.5365383 L95.5556427,39.5365383 C94.7029465,41.3926187 92.6975315,42.6197793 90.1394431,42.6197793 Z M91.6711381,28.9522783 C89.2709563,28.9522783 87.7392614,30.9003958 87.7392614,33.9682972 C87.7392614,37.0668777 89.2709563,38.9996556 91.6711381,38.9996556 C94.0555291,38.9996556 95.6030147,37.0361986 95.6030147,33.9836367 C95.6030147,30.9310748 94.0555291,28.9522783 91.6711381,28.9522783 Z M111.141033,28.5841302 C109.040874,28.5841302 107.493389,30.0720624 107.335482,32.2349329 L114.83605,32.2349329 C114.757096,30.0260438 113.272774,28.5841302 111.141033,28.5841302 Z M114.899212,37.2662913 L119.146902,37.2662913 C118.641601,40.5336063 115.499258,42.7118163 111.267359,42.7118163 C105.977484,42.7118163 102.740397,39.4138223 102.740397,34.0449947 C102.740397,28.6761672 105.993275,25.2401176 111.093661,25.2401176 C116.099303,25.2401176 119.289019,28.4920931 119.289019,33.630828 L119.289019,35.0113837 L107.28811,35.0113837 L107.28811,35.2874948 C107.28811,37.7264765 108.914549,39.3678037 111.346312,39.3678037 C113.083286,39.3678037 114.457074,38.5701494 114.899212,37.2662913 Z M121.768154,42.4203657 L126.379029,42.4203657 L126.379029,32.9712292 C126.379029,30.6089451 127.752817,29.1977105 130.089836,29.1977105 C130.768835,29.1977105 131.400462,29.305087 131.795229,29.4584821 L131.795229,25.5008892 C131.463624,25.3935127 130.989904,25.3321546 130.453022,25.3321546 C128.400235,25.3321546 126.900121,26.4672782 126.315866,28.5534511 L126.221122,28.5534511 L126.221122,25.5315682 L121.768154,25.5315682 L121.768154,42.4203657 Z M133.453249,30.5015686 C133.453249,32.9712292 135.14285,34.6125565 138.411519,35.3335133 L141.617025,36.0391307 C143.196092,36.4072789 143.796137,36.8674641 143.796137,37.741816 C143.796137,38.8462605 142.675,39.5365383 140.843282,39.5365383 C138.932611,39.5365383 137.748311,38.738884 137.527241,37.3123098 L133.026901,37.3123098 C133.263761,40.5642853 136.137663,42.7118163 140.716957,42.7118163 C145.264669,42.7118163 148.375431,40.5489458 148.375431,37.2662913 C148.375431,34.7506121 146.985852,33.446754 143.496114,32.6797786 L140.227446,31.9895008 C138.66417,31.6366921 137.906218,31.0691303 137.906218,30.2254574 C137.906218,29.1363524 139.011564,28.4153956 140.669585,28.4153956 C142.43814,28.4153956 143.590858,29.2590685 143.685602,30.5936056 L147.949083,30.5936056 C147.88592,27.3723091 145.027809,25.2401176 140.732747,25.2401176 C136.327151,25.2401176 133.453249,27.3262906 133.453249,30.5015686 Z" id="siders" fill="#F9F9F9"></path>
            </g>
        </g>
    </g>
</svg>