<?xml version="1.0" encoding="UTF-8" standalone="no"?>
<svg width="119px" height="25px" viewBox="0 0 119 25" version="1.1" xmlns="http://www.w3.org/2000/svg" xmlns:xlink="http://www.w3.org/1999/xlink">
    <!-- Generator: Sketch 46.2 (44496) - http://www.bohemiancoding.com/sketch -->
    <title>Group 9</title>
    <desc>Created with Sketch.</desc>
    <defs></defs>
    <g id="Page-5" stroke="none" stroke-width="1" fill="none" fill-rule="evenodd">
        <g id="Group-9" fill="#F9F9F9">
            <path d="M0.612844047,23.8628409 L5.22371946,23.8628409 L5.22371946,6.97404342 L0.612844047,6.97404342 L0.612844047,23.8628409 Z M2.91828175,5.13330255 C4.29206997,5.13330255 5.41320749,4.12089507 5.41320749,2.78635794 C5.41320749,1.45182081 4.29206997,0.45475284 2.91828175,0.45475284 C1.5602842,0.45475284 0.439146685,1.45182081 0.439146685,2.78635794 C0.439146685,4.12089507 1.5602842,5.13330255 2.91828175,5.13330255 Z M8.42922531,23.8628409 L13.0401007,23.8628409 L13.0401007,14.2296303 C13.0401007,11.9900623 14.3665169,10.4561116 16.5772106,10.4561116 C18.756323,10.4561116 19.8300885,11.7292907 19.8300885,13.9688587 L19.8300885,23.8628409 L24.4409639,23.8628409 L24.4409639,13.0331488 C24.4409639,9.09089541 22.2618515,6.7286113 18.4089282,6.7286113 C15.7403052,6.7286113 13.9717502,7.86373483 12.976938,9.99592634 L12.882194,9.99592634 L12.882194,6.97404342 L8.42922531,6.97404342 L8.42922531,23.8628409 Z" id="in"></path>
            <path d="M28.44757,12.5015686 C28.44757,14.9712292 30.1371716,16.6125565 33.4058402,17.3335133 L36.611346,18.0391307 C38.1904129,18.4072789 38.7904584,18.8674641 38.7904584,19.741816 C38.7904584,20.8462605 37.6693208,21.5365383 35.8376032,21.5365383 C33.9269322,21.5365383 32.7426321,20.738884 32.5215627,19.3123098 L28.021222,19.3123098 C28.258082,22.5642853 31.1319838,24.7118163 35.7112779,24.7118163 C40.2589906,24.7118163 43.3697524,22.5489458 43.3697524,19.2662913 C43.3697524,16.7506121 41.9801735,15.446754 38.4904356,14.6797786 L35.2217671,13.9895008 C33.6584909,13.6366921 32.9005387,13.0691303 32.9005387,12.2254574 C32.9005387,11.1363524 34.0058856,10.4153956 35.6639059,10.4153956 C37.4324608,10.4153956 38.5851797,11.2590685 38.6799237,12.5936056 L42.9434044,12.5936056 C42.8802417,9.37230909 40.0221306,7.24011758 35.7270685,7.24011758 C31.3214718,7.24011758 28.44757,9.32629057 28.44757,12.5015686 Z M45.8488875,24.4203657 L50.4597629,24.4203657 L50.4597629,7.53156822 L45.8488875,7.53156822 L45.8488875,24.4203657 Z M48.1543252,5.69082735 C49.5281134,5.69082735 50.6492509,4.67841988 50.6492509,3.34388275 C50.6492509,2.00934562 49.5281134,1.01227765 48.1543252,1.01227765 C46.7963277,1.01227765 45.6751901,2.00934562 45.6751901,3.34388275 C45.6751901,4.67841988 46.7963277,5.69082735 48.1543252,5.69082735 Z M60.1394431,24.6197793 C55.8127998,24.6197793 53.0178513,21.2757667 53.0178513,15.9529577 C53.0178513,10.6608277 55.8285904,7.33215463 60.1552338,7.33215463 C62.6659502,7.33215463 64.6082025,8.5439757 65.4766893,10.4153956 L65.5714333,10.4153956 L65.5714333,1.22703075 L70.1823088,1.22703075 L70.1823088,24.4203657 L65.634596,24.4203657 L65.634596,21.5365383 L65.5556427,21.5365383 C64.7029465,23.3926187 62.6975315,24.6197793 60.1394431,24.6197793 Z M61.6711381,10.9522783 C59.2709563,10.9522783 57.7392614,12.9003958 57.7392614,15.9682972 C57.7392614,19.0668777 59.2709563,20.9996556 61.6711381,20.9996556 C64.0555291,20.9996556 65.6030147,19.0361986 65.6030147,15.9836367 C65.6030147,12.9310748 64.0555291,10.9522783 61.6711381,10.9522783 Z M81.1410332,10.5841302 C79.0408742,10.5841302 77.4933886,12.0720624 77.3354819,14.2349329 L84.8360498,14.2349329 C84.7570964,12.0260438 83.2727735,10.5841302 81.1410332,10.5841302 Z M84.8992125,19.2662913 L89.1469025,19.2662913 C88.6416011,22.5336063 85.4992579,24.7118163 81.2673585,24.7118163 C75.9774844,24.7118163 72.7403972,21.4138223 72.7403972,16.0449947 C72.7403972,10.6761672 75.993275,7.24011758 81.0936612,7.24011758 C86.0993033,7.24011758 89.2890185,10.4920931 89.2890185,15.630828 L89.2890185,17.0113837 L77.2881099,17.0113837 L77.2881099,17.2874948 C77.2881099,19.7264765 78.9145488,21.3678037 81.3463119,21.3678037 C83.0832855,21.3678037 84.4570737,20.5701494 84.8992125,19.2662913 Z M91.7681536,24.4203657 L96.379029,24.4203657 L96.379029,14.9712292 C96.379029,12.6089451 97.7528172,11.1977105 100.089836,11.1977105 C100.768835,11.1977105 101.400462,11.305087 101.795229,11.4584821 L101.795229,7.50088921 C101.463624,7.39351266 100.989904,7.33215463 100.453022,7.33215463 C98.4002346,7.33215463 96.9001211,8.46727816 96.3158663,10.5534511 L96.2211223,10.5534511 L96.2211223,7.53156822 L91.7681536,7.53156822 L91.7681536,24.4203657 Z M103.453249,12.5015686 C103.453249,14.9712292 105.14285,16.6125565 108.411519,17.3335133 L111.617025,18.0391307 C113.196092,18.4072789 113.796137,18.8674641 113.796137,19.741816 C113.796137,20.8462605 112.675,21.5365383 110.843282,21.5365383 C108.932611,21.5365383 107.748311,20.738884 107.527241,19.3123098 L103.026901,19.3123098 C103.263761,22.5642853 106.137663,24.7118163 110.716957,24.7118163 C115.264669,24.7118163 118.375431,22.5489458 118.375431,19.2662913 C118.375431,16.7506121 116.985852,15.446754 113.496114,14.6797786 L110.227446,13.9895008 C108.66417,13.6366921 107.906218,13.0691303 107.906218,12.2254574 C107.906218,11.1363524 109.011564,10.4153956 110.669585,10.4153956 C112.43814,10.4153956 113.590858,11.2590685 113.685602,12.5936056 L117.949083,12.5936056 C117.88592,9.37230909 115.027809,7.24011758 110.732747,7.24011758 C106.327151,7.24011758 103.453249,9.32629057 103.453249,12.5015686 Z" id="siders"></path>
        </g>
    </g>
</svg>