<?xml version="1.0" encoding="UTF-8" standalone="no"?>
<svg width="1446px" height="539px" viewBox="0 0 1446 539" version="1.1" xmlns="http://www.w3.org/2000/svg" xmlns:xlink="http://www.w3.org/1999/xlink">
    <!-- Generator: Sketch 46.2 (44496) - http://www.bohemiancoding.com/sketch -->
    <title>Group 10</title>
    <desc>Created with Sketch.</desc>
    <defs>
        <path d="M568.110381,296.475246 C568.110381,320.480348 584.533308,336.434049 616.304766,343.44175 L647.462283,350.30035 C662.810814,353.87875 668.643255,358.351751 668.643255,366.850451 C668.643255,377.585652 657.745799,384.295153 639.941503,384.295153 C621.369781,384.295153 609.858384,376.541952 607.709589,362.675651 L563.966277,362.675651 C566.268557,394.284853 594.202882,415.158855 638.713621,415.158855 C682.917389,415.158855 713.153994,394.135753 713.153994,362.228351 C713.153994,337.775949 699.647287,325.102448 665.727034,317.647448 L633.955576,310.937947 C618.760531,307.508647 611.393237,301.991947 611.393237,293.791446 C611.393237,283.205346 622.137208,276.197645 638.253165,276.197645 C655.443519,276.197645 666.647946,284.398146 667.568858,297.369847 L709.00989,297.369847 C708.395949,266.058844 680.615109,245.333943 638.867106,245.333943 C596.044706,245.333943 568.110381,265.611544 568.110381,296.475246 Z M737.251186,412.325954 L782.068895,412.325954 L782.068895,248.166843 L737.251186,248.166843 L737.251186,412.325954 Z M759.660041,230.274842 C773.013262,230.274842 783.910719,220.434241 783.910719,207.46254 C783.910719,194.490839 773.013262,184.799339 759.660041,184.799339 C746.460305,184.799339 735.562848,194.490839 735.562848,207.46254 C735.562848,220.434241 746.460305,230.274842 759.660041,230.274842 Z M876.155387,414.264255 C834.100414,414.264255 806.933515,381.760452 806.933515,330.022749 C806.933515,278.583245 834.253899,246.228543 876.308873,246.228543 C900.713036,246.228543 919.591729,258.007444 928.03342,276.197645 L928.954332,276.197645 L928.954332,186.886739 L973.772041,186.886739 L973.772041,412.325954 L929.568273,412.325954 L929.568273,384.295153 L928.800847,384.295153 C920.51264,402.336254 901.020007,414.264255 876.155387,414.264255 Z M891.043462,281.416145 C867.713696,281.416145 852.825621,300.351847 852.825621,330.171849 C852.825621,360.290051 867.713696,379.076652 891.043462,379.076652 C914.219743,379.076652 929.261303,359.991851 929.261303,330.320949 C929.261303,300.650047 914.219743,281.416145 891.043462,281.416145 Z M1080.29084,277.837745 C1059.8773,277.837745 1044.83574,292.300446 1043.30088,313.323548 L1116.2064,313.323548 C1115.43898,291.853146 1101.01136,277.837745 1080.29084,277.837745 Z M1116.82035,362.228351 L1158.10789,362.228351 C1153.19636,393.986653 1122.65279,415.158855 1081.51873,415.158855 C1030.10115,415.158855 998.63666,383.102352 998.63666,330.917349 C998.63666,278.732345 1030.25463,245.333943 1079.83039,245.333943 C1128.48523,245.333943 1159.48926,276.943145 1159.48926,326.891649 L1159.48926,340.310649 L1042.84043,340.310649 L1042.84043,342.99445 C1042.84043,366.701351 1058.64941,382.655052 1082.28615,382.655052 C1099.16954,382.655052 1112.52276,374.901852 1116.82035,362.228351 Z M1183.58645,412.325954 L1228.40416,412.325954 L1228.40416,320.480348 C1228.40416,297.518947 1241.75738,283.801746 1264.47321,283.801746 C1271.07308,283.801746 1277.21249,284.845446 1281.04962,286.336446 L1281.04962,247.868643 C1277.82643,246.824943 1273.22187,246.228543 1268.00337,246.228543 C1248.05028,246.228543 1233.46918,257.261944 1227.79022,277.539545 L1226.86931,277.539545 L1226.86931,248.166843 L1183.58645,248.166843 L1183.58645,412.325954 Z M1297.16558,296.475246 C1297.16558,320.480348 1313.58851,336.434049 1345.35996,343.44175 L1376.51748,350.30035 C1391.86601,353.87875 1397.69845,358.351751 1397.69845,366.850451 C1397.69845,377.585652 1386.801,384.295153 1368.9967,384.295153 C1350.42498,384.295153 1338.91358,376.541952 1336.76479,362.675651 L1293.02147,362.675651 C1295.32375,394.284853 1323.25808,415.158855 1367.76882,415.158855 C1411.97259,415.158855 1442.20919,394.135753 1442.20919,362.228351 C1442.20919,337.775949 1428.70248,325.102448 1394.78223,317.647448 L1363.01077,310.937947 C1347.81573,307.508647 1340.44843,301.991947 1340.44843,293.791446 C1340.44843,283.205346 1351.19241,276.197645 1367.30836,276.197645 C1384.49872,276.197645 1395.70314,284.398146 1396.62406,297.369847 L1438.06509,297.369847 C1437.45115,266.058844 1409.67031,245.333943 1367.9223,245.333943 C1325.0999,245.333943 1297.16558,265.611544 1297.16558,296.475246 Z" id="path-1"></path>
        <filter x="-0.6%" y="-1.5%" width="101.3%" height="104.8%" filterUnits="objectBoundingBox" id="filter-2">
            <feOffset dx="0" dy="2" in="SourceAlpha" result="shadowOffsetOuter1"></feOffset>
            <feGaussianBlur stdDeviation="1.5" in="shadowOffsetOuter1" result="shadowBlurOuter1"></feGaussianBlur>
            <feColorMatrix values="0 0 0 0 0   0 0 0 0 0   0 0 0 0 0  0 0 0 0.5 0" type="matrix" in="shadowBlurOuter1"></feColorMatrix>
        </filter>
        <filter x="-0.5%" y="-1.1%" width="101.0%" height="103.9%" filterUnits="objectBoundingBox" id="filter-3">
            <feGaussianBlur stdDeviation="1" in="SourceAlpha" result="shadowBlurInner1"></feGaussianBlur>
            <feOffset dx="0" dy="1" in="shadowBlurInner1" result="shadowOffsetInner1"></feOffset>
            <feComposite in="shadowOffsetInner1" in2="SourceAlpha" operator="arithmetic" k2="-1" k3="1" result="shadowInnerInner1"></feComposite>
            <feColorMatrix values="0 0 0 0 0   0 0 0 0 0   0 0 0 0 0  0 0 0 0.5 0" type="matrix" in="shadowInnerInner1"></feColorMatrix>
        </filter>
    </defs>
    <g id="Page-5" stroke="none" stroke-width="1" fill="none" fill-rule="evenodd">
        <g id="Group-10">
            <ellipse id="Oval" fill="#192B41" cx="277.228568" cy="269.307752" rx="277.228568" ry="269.307752"></ellipse>
            <polygon id="Triangle" fill="#192B41" transform="translate(488.944551, 478.725686) rotate(139.000000) translate(-488.944551, -478.725686) " points="488.944551 429.769754 566.582016 527.681618 411.307086 527.681618"></polygon>
            <path d="M297.556844,406.906813 L342.374553,406.906813 L342.374553,242.747702 L297.556844,242.747702 L297.556844,406.906813 Z M319.965699,224.855701 C333.31892,224.855701 344.216377,215.0151 344.216377,202.043399 C344.216377,189.071698 333.31892,179.380198 319.965699,179.380198 C306.765962,179.380198 295.868506,189.071698 295.868506,202.043399 C295.868506,215.0151 306.765962,224.855701 319.965699,224.855701 Z M373.53207,406.906813 L418.349779,406.906813 L418.349779,313.272007 C418.349779,291.503405 431.242545,276.593404 452.730487,276.593404 C473.911459,276.593404 484.34846,288.968705 484.34846,310.737307 L484.34846,406.906813 L529.166169,406.906813 L529.166169,301.642206 C529.166169,263.323503 507.985197,240.362102 470.534783,240.362102 C444.595766,240.362102 427.405412,251.395503 417.735838,272.120404 L416.814926,272.120404 L416.814926,242.747702 L373.53207,242.747702 L373.53207,406.906813 Z" id="in" fill="#FFFFFF"></path>
            <g id="siders">
                <use fill="black" fill-opacity="1" filter="url(#filter-2)" xlink:href="#path-1"></use>
                <use fill="#192B41" fill-rule="evenodd" xlink:href="#path-1"></use>
                <use fill="black" fill-opacity="1" filter="url(#filter-3)" xlink:href="#path-1"></use>
            </g>
            <text id="Play.-Share.-Make-mo" font-family="LucidaGrande, Lucida Grande" font-size="46.08" font-weight="normal" letter-spacing="-0.145152006" fill="#192B41">
                <tspan x="575.916528" y="512.533297">Play. Share. Make money.</tspan>
            </text>
        </g>
    </g>
</svg>